<?xml version="1.0" encoding="UTF-8" standalone="no"?>
<!-- Created with Inkscape (http://www.inkscape.org/) -->

<svg
   xmlns:dc="http://purl.org/dc/elements/1.1/"
   xmlns:cc="http://creativecommons.org/ns#"
   xmlns:rdf="http://www.w3.org/1999/02/22-rdf-syntax-ns#"
   xmlns:svg="http://www.w3.org/2000/svg"
   xmlns="http://www.w3.org/2000/svg"
   xmlns:sodipodi="http://sodipodi.sourceforge.net/DTD/sodipodi-0.dtd"
   xmlns:inkscape="http://www.inkscape.org/namespaces/inkscape"
   width="744.09448819"
   height="1052.3622047"
   id="svg2"
   version="1.1"
   inkscape:version="0.47 r22583"
   sodipodi:docname="layer_above_and_below.svg">
  <sodipodi:namedview
     id="base"
     pagecolor="#ffffff"
     bordercolor="#666666"
     borderopacity="1.0"
     inkscape:pageopacity="0.0"
     inkscape:pageshadow="2"
     inkscape:zoom="1.979899"
     inkscape:cx="180.08158"
     inkscape:cy="586.72667"
     inkscape:document-units="px"
     inkscape:current-layer="layer1"
     showgrid="false"
     inkscape:window-width="1920"
     inkscape:window-height="1180"
     inkscape:window-x="-2"
     inkscape:window-y="-2"
     inkscape:window-maximized="1" />
  <defs
     id="defs4">
    <marker
       inkscape:stockid="Arrow1Lstart"
       orient="auto"
       refY="0.0"
       refX="0.0"
       id="Arrow1Lstart"
       style="overflow:visible">
      <path
         id="path3593"
         d="M 0.0,0.0 L 5.0,-5.0 L -12.5,0.0 L 5.0,5.0 L 0.0,0.0 z "
         style="fill-rule:evenodd;stroke:#000000;stroke-width:1.0pt;marker-start:none"
         transform="scale(0.8) translate(12.5,0)" />
    </marker>
    <marker
       style="overflow:visible"
       id="Arrow1Mstart"
       refX="0.0"
       refY="0.0"
       orient="auto"
       inkscape:stockid="Arrow1Mstart">
      <path
         transform="scale(0.4) translate(10,0)"
         style="fill-rule:evenodd;stroke:#000000;stroke-width:1.0pt;marker-start:none"
         d="M 0.0,0.0 L 5.0,-5.0 L -12.5,0.0 L 5.0,5.0 L 0.0,0.0 z "
         id="path3599" />
    </marker>
    <marker
       inkscape:stockid="Arrow2Send"
       orient="auto"
       refY="0.0"
       refX="0.0"
       id="Arrow2Send"
       style="overflow:visible;">
      <path
         id="path3626"
         style="font-size:12.0;fill-rule:evenodd;stroke-width:0.62500000;stroke-linejoin:round;"
         d="M 8.7185878,4.0337352 L -2.2072895,0.016013256 L 8.7185884,-4.0017078 C 6.9730900,-1.6296469 6.9831476,1.6157441 8.7185878,4.0337352 z "
         transform="scale(0.3) rotate(180) translate(-2.3,0)" />
    </marker>
    <marker
       inkscape:stockid="Arrow1Mend"
       orient="auto"
       refY="0.0"
       refX="0.0"
       id="Arrow1Mend"
       style="overflow:visible;">
      <path
         id="path3602"
         d="M 0.0,0.0 L 5.0,-5.0 L -12.5,0.0 L 5.0,5.0 L 0.0,0.0 z "
         style="fill-rule:evenodd;stroke:#000000;stroke-width:1.0pt;marker-start:none;"
         transform="scale(0.4) rotate(180) translate(10,0)" />
    </marker>
    <marker
       inkscape:stockid="Arrow1Sstart"
       orient="auto"
       refY="0.0"
       refX="0.0"
       id="Arrow1Sstart"
       style="overflow:visible">
      <path
         id="path3605"
         d="M 0.0,0.0 L 5.0,-5.0 L -12.5,0.0 L 5.0,5.0 L 0.0,0.0 z "
         style="fill-rule:evenodd;stroke:#000000;stroke-width:1.0pt;marker-start:none"
         transform="scale(0.2) translate(6,0)" />
    </marker>
    <marker
       inkscape:stockid="Arrow2Mend"
       orient="auto"
       refY="0.0"
       refX="0.0"
       id="Arrow2Mend"
       style="overflow:visible;">
      <path
         id="path3620"
         style="font-size:12.0;fill-rule:evenodd;stroke-width:0.62500000;stroke-linejoin:round;"
         d="M 8.7185878,4.0337352 L -2.2072895,0.016013256 L 8.7185884,-4.0017078 C 6.9730900,-1.6296469 6.9831476,1.6157441 8.7185878,4.0337352 z "
         transform="scale(0.6) rotate(180) translate(0,0)" />
    </marker>
    <marker
       inkscape:stockid="Arrow1Lend"
       orient="auto"
       refY="0.0"
       refX="0.0"
       id="Arrow1Lend"
       style="overflow:visible;">
      <path
         id="path3596"
         d="M 0.0,0.0 L 5.0,-5.0 L -12.5,0.0 L 5.0,5.0 L 0.0,0.0 z "
         style="fill-rule:evenodd;stroke:#000000;stroke-width:1.0pt;marker-start:none;"
         transform="scale(0.8) rotate(180) translate(12.5,0)" />
    </marker>
    <inkscape:perspective
       sodipodi:type="inkscape:persp3d"
       inkscape:vp_x="0 : 526.18109 : 1"
       inkscape:vp_y="0 : 1000 : 0"
       inkscape:vp_z="744.09448 : 526.18109 : 1"
       inkscape:persp3d-origin="372.04724 : 350.78739 : 1"
       id="perspective10" />
    <inkscape:perspective
       id="perspective4046"
       inkscape:persp3d-origin="0.5 : 0.33333333 : 1"
       inkscape:vp_z="1 : 0.5 : 1"
       inkscape:vp_y="0 : 1000 : 0"
       inkscape:vp_x="0 : 0.5 : 1"
       sodipodi:type="inkscape:persp3d" />
    <marker
       inkscape:stockid="Arrow1Lend"
       orient="auto"
       refY="0"
       refX="0"
       id="Arrow1Lend-6"
       style="overflow:visible">
      <path
         id="path3596-5"
         d="M 0,0 5,-5 -12.5,0 5,5 0,0 z"
         style="fill-rule:evenodd;stroke:#000000;stroke-width:1pt;marker-start:none"
         transform="matrix(-0.8,0,0,-0.8,-10,0)" />
    </marker>
    <inkscape:perspective
       id="perspective4046-4"
       inkscape:persp3d-origin="0.5 : 0.33333333 : 1"
       inkscape:vp_z="1 : 0.5 : 1"
       inkscape:vp_y="0 : 1000 : 0"
       inkscape:vp_x="0 : 0.5 : 1"
       sodipodi:type="inkscape:persp3d" />
    <marker
       inkscape:stockid="Arrow1Lend"
       orient="auto"
       refY="0"
       refX="0"
       id="Arrow1Lend-0"
       style="overflow:visible">
      <path
         id="path3596-8"
         d="M 0,0 5,-5 -12.5,0 5,5 0,0 z"
         style="fill-rule:evenodd;stroke:#000000;stroke-width:1pt;marker-start:none"
         transform="matrix(-0.8,0,0,-0.8,-10,0)" />
    </marker>
    <inkscape:perspective
       id="perspective4112"
       inkscape:persp3d-origin="0.5 : 0.33333333 : 1"
       inkscape:vp_z="1 : 0.5 : 1"
       inkscape:vp_y="0 : 1000 : 0"
       inkscape:vp_x="0 : 0.5 : 1"
       sodipodi:type="inkscape:persp3d" />
    <inkscape:perspective
       id="perspective4112-1"
       inkscape:persp3d-origin="0.5 : 0.33333333 : 1"
       inkscape:vp_z="1 : 0.5 : 1"
       inkscape:vp_y="0 : 1000 : 0"
       inkscape:vp_x="0 : 0.5 : 1"
       sodipodi:type="inkscape:persp3d" />
    <inkscape:perspective
       id="perspective4150"
       inkscape:persp3d-origin="0.5 : 0.33333333 : 1"
       inkscape:vp_z="1 : 0.5 : 1"
       inkscape:vp_y="0 : 1000 : 0"
       inkscape:vp_x="0 : 0.5 : 1"
       sodipodi:type="inkscape:persp3d" />
    <inkscape:perspective
       id="perspective4172"
       inkscape:persp3d-origin="0.5 : 0.33333333 : 1"
       inkscape:vp_z="1 : 0.5 : 1"
       inkscape:vp_y="0 : 1000 : 0"
       inkscape:vp_x="0 : 0.5 : 1"
       sodipodi:type="inkscape:persp3d" />
    <marker
       inkscape:stockid="Arrow1Lend"
       orient="auto"
       refY="0"
       refX="0"
       id="Arrow1Lend-9"
       style="overflow:visible">
      <path
         id="path3596-7"
         d="M 0,0 5,-5 -12.5,0 5,5 0,0 z"
         style="fill-rule:evenodd;stroke:#000000;stroke-width:1pt;marker-start:none"
         transform="matrix(-0.8,0,0,-0.8,-10,0)" />
    </marker>
    <inkscape:perspective
       sodipodi:type="inkscape:persp3d"
       inkscape:vp_x="0 : 0.5 : 1"
       inkscape:vp_y="0 : 1000 : 0"
       inkscape:vp_z="1 : 0.5 : 1"
       inkscape:persp3d-origin="0.5 : 0.33333333 : 1"
       id="perspective5084" />
    <marker
       inkscape:stockid="Arrow2Mend"
       orient="auto"
       refY="0"
       refX="0"
       id="Arrow2Mend-7"
       style="overflow:visible">
      <path
         id="path3620-6"
         style="font-size:12px;fill-rule:evenodd;stroke-width:0.625;stroke-linejoin:round"
         d="M 8.7185878,4.0337352 -2.2072895,0.01601326 8.7185884,-4.0017078 c -1.7454984,2.3720609 -1.7354408,5.6174519 -6e-7,8.035443 z"
         transform="scale(-0.6,-0.6)" />
    </marker>
    <inkscape:perspective
       sodipodi:type="inkscape:persp3d"
       inkscape:vp_x="0 : 0.5 : 1"
       inkscape:vp_y="0 : 1000 : 0"
       inkscape:vp_z="1 : 0.5 : 1"
       inkscape:persp3d-origin="0.5 : 0.33333333 : 1"
       id="perspective5916" />
    <marker
       style="overflow:visible"
       id="Arrow1Mstart-4"
       refX="0"
       refY="0"
       orient="auto"
       inkscape:stockid="Arrow1Mstart">
      <path
         transform="matrix(0.4,0,0,0.4,4,0)"
         style="fill-rule:evenodd;stroke:#000000;stroke-width:1pt;marker-start:none"
         d="M 0,0 5,-5 -12.5,0 5,5 0,0 z"
         id="path3599-7" />
    </marker>
    <marker
       inkscape:stockid="Arrow2Mend"
       orient="auto"
       refY="0"
       refX="0"
       id="Arrow2Mend-7-9"
       style="overflow:visible">
      <path
         id="path3620-6-6"
         style="font-size:12px;fill-rule:evenodd;stroke-width:0.625;stroke-linejoin:round"
         d="M 8.7185878,4.0337352 -2.2072895,0.01601326 8.7185884,-4.0017078 c -1.7454984,2.3720609 -1.7354408,5.6174519 -6e-7,8.035443 z"
         transform="scale(-0.6,-0.6)" />
    </marker>
    <inkscape:perspective
       sodipodi:type="inkscape:persp3d"
       inkscape:vp_x="0 : 0.5 : 1"
       inkscape:vp_y="0 : 1000 : 0"
       inkscape:vp_z="1 : 0.5 : 1"
       inkscape:persp3d-origin="0.5 : 0.33333333 : 1"
       id="perspective6362" />
    <inkscape:perspective
       id="perspective7115"
       inkscape:persp3d-origin="0.5 : 0.33333333 : 1"
       inkscape:vp_z="1 : 0.5 : 1"
       inkscape:vp_y="0 : 1000 : 0"
       inkscape:vp_x="0 : 0.5 : 1"
       sodipodi:type="inkscape:persp3d" />
    <inkscape:perspective
       id="perspective7137"
       inkscape:persp3d-origin="0.5 : 0.33333333 : 1"
       inkscape:vp_z="1 : 0.5 : 1"
       inkscape:vp_y="0 : 1000 : 0"
       inkscape:vp_x="0 : 0.5 : 1"
       sodipodi:type="inkscape:persp3d" />
    <inkscape:perspective
       id="perspective7159"
       inkscape:persp3d-origin="0.5 : 0.33333333 : 1"
       inkscape:vp_z="1 : 0.5 : 1"
       inkscape:vp_y="0 : 1000 : 0"
       inkscape:vp_x="0 : 0.5 : 1"
       sodipodi:type="inkscape:persp3d" />
    <inkscape:perspective
       id="perspective7181"
       inkscape:persp3d-origin="0.5 : 0.33333333 : 1"
       inkscape:vp_z="1 : 0.5 : 1"
       inkscape:vp_y="0 : 1000 : 0"
       inkscape:vp_x="0 : 0.5 : 1"
       sodipodi:type="inkscape:persp3d" />
    <marker
       style="overflow:visible"
       id="Arrow1Mstart-44"
       refX="0"
       refY="0"
       orient="auto"
       inkscape:stockid="Arrow1Mstart">
      <path
         transform="matrix(0.4,0,0,0.4,4,0)"
         style="fill-rule:evenodd;stroke:#000000;stroke-width:1pt;marker-start:none"
         d="M 0,0 5,-5 -12.5,0 5,5 0,0 z"
         id="path3599-6" />
    </marker>
    <marker
       inkscape:stockid="Arrow2Mend"
       orient="auto"
       refY="0"
       refX="0"
       id="Arrow2Mend-7-91"
       style="overflow:visible">
      <path
         id="path3620-6-9"
         style="font-size:12px;fill-rule:evenodd;stroke-width:0.625;stroke-linejoin:round"
         d="M 8.7185878,4.0337352 -2.2072895,0.01601326 8.7185884,-4.0017078 c -1.7454984,2.3720609 -1.7354408,5.6174519 -6e-7,8.035443 z"
         transform="scale(-0.6,-0.6)" />
    </marker>
    <inkscape:perspective
       id="perspective7218"
       inkscape:persp3d-origin="0.5 : 0.33333333 : 1"
       inkscape:vp_z="1 : 0.5 : 1"
       inkscape:vp_y="0 : 1000 : 0"
       inkscape:vp_x="0 : 0.5 : 1"
       sodipodi:type="inkscape:persp3d" />
    <inkscape:perspective
       id="perspective7240"
       inkscape:persp3d-origin="0.5 : 0.33333333 : 1"
       inkscape:vp_z="1 : 0.5 : 1"
       inkscape:vp_y="0 : 1000 : 0"
       inkscape:vp_x="0 : 0.5 : 1"
       sodipodi:type="inkscape:persp3d" />
    <marker
       inkscape:stockid="Arrow1Lend"
       orient="auto"
       refY="0"
       refX="0"
       id="Arrow1Lend-62"
       style="overflow:visible">
      <path
         id="path3596-1"
         d="M 0,0 5,-5 -12.5,0 5,5 0,0 z"
         style="fill-rule:evenodd;stroke:#000000;stroke-width:1pt;marker-start:none"
         transform="matrix(-0.8,0,0,-0.8,-10,0)" />
    </marker>
    <inkscape:perspective
       id="perspective8124"
       inkscape:persp3d-origin="0.5 : 0.33333333 : 1"
       inkscape:vp_z="1 : 0.5 : 1"
       inkscape:vp_y="0 : 1000 : 0"
       inkscape:vp_x="0 : 0.5 : 1"
       sodipodi:type="inkscape:persp3d" />
    <marker
       inkscape:stockid="Arrow1Sstart"
       orient="auto"
       refY="0"
       refX="0"
       id="Arrow1Sstart-5"
       style="overflow:visible">
      <path
         id="path3605-3"
         d="M 0,0 5,-5 -12.5,0 5,5 0,0 z"
         style="fill-rule:evenodd;stroke:#000000;stroke-width:1pt;marker-start:none"
         transform="matrix(0.2,0,0,0.2,1.2,0)" />
    </marker>
    <marker
       inkscape:stockid="Arrow2Send"
       orient="auto"
       refY="0"
       refX="0"
       id="Arrow2Send-3"
       style="overflow:visible">
      <path
         id="path3626-6"
         style="font-size:12px;fill-rule:evenodd;stroke-width:0.625;stroke-linejoin:round"
         d="M 8.7185878,4.0337352 -2.2072895,0.01601326 8.7185884,-4.0017078 c -1.7454984,2.3720609 -1.7354408,5.6174519 -6e-7,8.035443 z"
         transform="matrix(-0.3,0,0,-0.3,0.69,0)" />
    </marker>
  </defs>
  <metadata
     id="metadata7">
    <rdf:RDF>
      <cc:Work
         rdf:about="">
        <dc:format>image/svg+xml</dc:format>
        <dc:type
           rdf:resource="http://purl.org/dc/dcmitype/StillImage" />
        <dc:title />
      </cc:Work>
    </rdf:RDF>
  </metadata>
  <g
     inkscape:label="Layer 1"
     inkscape:groupmode="layer"
     id="layer1">
    <path
       style="fill:none;stroke:#000000;stroke-width:1;stroke-linecap:butt;stroke-linejoin:miter;stroke-miterlimit:4;stroke-opacity:1;stroke-dasharray:none;marker-end:url(#Arrow1Lend)"
       d="m 154.10715,545.75504 135,0"
       id="path2816"
       sodipodi:nodetypes="cc" />
    <path
       style="fill:none;stroke:#000000;stroke-width:1;stroke-linecap:butt;stroke-linejoin:miter;stroke-miterlimit:4;stroke-opacity:1;stroke-dasharray:none;marker-end:url(#Arrow1Lend)"
       d="m 153.64501,545.56674 -36.93287,33.59088"
       id="path2816-1"
       sodipodi:nodetypes="cc" />
    <path
       style="fill:none;stroke:#000000;stroke-width:1.05756843;stroke-linecap:butt;stroke-linejoin:miter;stroke-miterlimit:4;stroke-opacity:1;stroke-dasharray:none;marker-end:url(#Arrow1Lend)"
       d="m 153.57143,546.26197 0,-152.08529"
       id="path2816-7"
       sodipodi:nodetypes="cc" />
    <text
       xml:space="preserve"
       style="font-size:11px;font-style:normal;font-variant:normal;font-weight:normal;font-stretch:normal;fill:#000000;fill-opacity:1;stroke:none;font-family:'04b_09';-inkscape-font-specification:'04b_09'"
       x="137.50002"
       y="395.57648"
       id="text4100"><tspan
         sodipodi:role="line"
         id="tspan4102"
         x="137.50002"
         y="395.57648"
         style="font-size:16px;font-style:normal;font-variant:normal;font-weight:normal;font-stretch:normal;font-family:Sans;-inkscape-font-specification:Sans">z</tspan></text>
    <text
       xml:space="preserve"
       style="font-size:11px;font-style:normal;font-variant:normal;font-weight:normal;font-stretch:normal;fill:#000000;fill-opacity:1;stroke:none;font-family:'04b_09';-inkscape-font-specification:'04b_09'"
       x="102.22935"
       y="572.45142"
       id="text4100-1"><tspan
         sodipodi:role="line"
         id="tspan4102-5"
         x="102.22935"
         y="572.45142"
         style="font-size:16px;font-style:normal;font-variant:normal;font-weight:normal;font-stretch:normal;font-family:Sans;-inkscape-font-specification:Sans">y</tspan></text>
    <text
       xml:space="preserve"
       style="font-size:11px;font-style:normal;font-variant:normal;font-weight:normal;font-stretch:normal;fill:#000000;fill-opacity:1;stroke:none;font-family:'04b_09';-inkscape-font-specification:'04b_09'"
       x="289.37219"
       y="542.45148"
       id="text4100-15"><tspan
         sodipodi:role="line"
         id="tspan4102-1"
         x="289.37219"
         y="542.45148"
         style="font-size:16px;font-style:normal;font-variant:normal;font-weight:normal;font-stretch:normal;font-family:Sans;-inkscape-font-specification:Sans">x</tspan></text>
    <path
       sodipodi:type="arc"
       style="fill:none;stroke:#000000;stroke-width:0.5;stroke-linecap:round;stroke-linejoin:round;stroke-miterlimit:4;stroke-opacity:1;stroke-dasharray:1, 0.5;stroke-dashoffset:0"
       id="path4140"
       sodipodi:cx="173.57143"
       sodipodi:cy="544.68359"
       sodipodi:rx="51.785713"
       sodipodi:ry="8.3928576"
       d="m 225.35714,544.68359 a 51.785713,8.3928576 0 1 1 -103.57143,0 51.785713,8.3928576 0 1 1 103.57143,0 z"
       transform="translate(-20,-0.71428565)" />
    <path
       sodipodi:type="arc"
       style="fill:none;stroke:#000000;stroke-width:0.5;stroke-linecap:round;stroke-linejoin:round;stroke-miterlimit:4;stroke-opacity:1;stroke-dasharray:1, 0.5;stroke-dashoffset:0"
       id="path4140-3"
       sodipodi:cx="173.57143"
       sodipodi:cy="544.68359"
       sodipodi:rx="51.785713"
       sodipodi:ry="8.3928576"
       d="m 225.35714,544.68359 a 51.785713,8.3928576 0 1 1 -103.57143,0 51.785713,8.3928576 0 1 1 103.57143,0 z"
       transform="matrix(1.1849202,0,0,1.3537629,41.831711,-320.54597)" />
    <path
       style="fill:none;stroke:#0000ff;stroke-width:1;stroke-linecap:butt;stroke-linejoin:miter;stroke-miterlimit:4;stroke-opacity:1;stroke-dasharray:1, 2;marker-end:url(#Arrow2Mend);stroke-dashoffset:0"
       d="M 153.96427,544.89034 248.53573,417.33402"
       id="path2816-1-8"
       sodipodi:nodetypes="cc" />
    <path
       style="fill:none;stroke:#000000;stroke-width:1;stroke-linecap:butt;stroke-linejoin:miter;stroke-opacity:1;stroke-miterlimit:4;stroke-dasharray:1,3;stroke-dashoffset:0"
       d="m 249.28571,417.00504 1.07143,97.14286 -97.5,31.07142"
       id="path4386"
       sodipodi:nodetypes="ccc" />
    <path
       style="fill:none;stroke:#0000ff;stroke-width:1px;stroke-linecap:butt;stroke-linejoin:miter;stroke-opacity:1;marker-start:url(#Arrow1Sstart);marker-end:url(#Arrow2Send)"
       d="m 184.08097,503.71483 c 0,0 -8.07404,-19.61767 -29.68183,-6.99294"
       id="path4390"
       sodipodi:nodetypes="cs" />
    <g
       style="fill:#0000ff;stroke:#0000ff"
       transform="matrix(0.33130424,0,0,0.33130424,-203.8247,351.33103)"
       id="g5028">
      <g
         style="font-style:normal;font-variant:normal;font-weight:normal;font-stretch:normal;letter-spacing:normal;word-spacing:normal;text-anchor:start;fill:#0000ff;stroke:#0000ff;stroke-linecap:butt;stroke-linejoin:miter;stroke-miterlimit:10.43299961;stroke-opacity:1;stroke-dasharray:none;stroke-dashoffset:0"
         id="content"
         transform="matrix(1.0629921,0,0,-1.0629921,-186.02362,789.27165)"
         xml:space="preserve"
         stroke-miterlimit="10.433"
         fill-rule="even-odd"
         font-style="normal"
         font-variant="normal"
         font-weight="normal"
         font-stretch="normal"
         font-size-adjust="none"
         letter-spacing="normal"
         word-spacing="normal"><path
           style="fill:#0000ff;stroke:#0000ff;stroke-width:0"
           d="m 1250.7,370.91 0,0.31 -0.1,0.34 0,0.36 0,0.37 0,0.38 -0.1,0.4 0,0.41 -0.1,0.41 0,0.42 -0.1,0.42 -0.1,0.43 -0.1,0.42 -0.1,0.43 -0.1,0.42 -0.2,0.41 -0.1,0.4 -0.2,0.4 -0.2,0.39 -0.2,0.37 -0.2,0.35 -0.2,0.34 -0.3,0.32 -0.2,0.3 -0.3,0.27 -0.3,0.25 -0.2,0.12 -0.2,0.11 -0.1,0.1 -0.2,0.09 -0.2,0.09 -0.2,0.07 -0.2,0.07 -0.2,0.06 -0.2,0.06 -0.2,0.04 -0.2,0.03 -0.2,0.03 -0.3,0.01 -0.2,0.01 -0.1,-1.1 c 2.5,0 2.8,-3.18 2.8,-6.02 0,-2.45 -0.4,-4.99 -1.6,-9.92 h -10.4 c 0.8,3.19 1.8,7.17 3.8,10.71 1.4,2.44 3.2,5.23 5.4,5.23 l 0.1,1.1 c -6.9,0 -14.6,-14.05 -14.6,-25.46 0,-4.68 1.4,-10.21 6,-10.21 v 1.1 c -1.7,0 -2.7,1.44 -2.7,6.07 0,2.1 0.3,4.99 1.6,9.87 h 10.3 c -0.5,-2.29 -1.6,-6.53 -3.5,-10.11 -1.7,-3.39 -3.6,-5.83 -5.7,-5.83 v -1.1 c 7,0 14.6,14.3 14.6,25.46 z"
           id="path5031" /></g>    </g>
    <path
       style="fill:none;stroke:#0000ff;stroke-width:0.5;stroke-linecap:butt;stroke-linejoin:miter;stroke-miterlimit:4;stroke-opacity:1;stroke-dasharray:none;stroke-dashoffset:0;marker-start:none;marker-end:none"
       d="m 118.06954,416.92481 130.40161,0.0645"
       id="path2816-1-8-3"
       sodipodi:nodetypes="cc" />
    <path
       style="fill:none;stroke:#0000ff;stroke-width:0.4957259;stroke-linecap:butt;stroke-linejoin:miter;stroke-miterlimit:4;stroke-opacity:1;stroke-dasharray:none;stroke-dashoffset:0;marker-start:url(#Arrow1Mstart);marker-end:url(#Arrow2Mend-7)"
       d="m 136.37004,545.06554 0.0646,-127.89563"
       id="path2816-1-8-3-3"
       sodipodi:nodetypes="cc" />
    <path
       style="fill:none;stroke:#0000ff;stroke-width:0.5;stroke-linecap:butt;stroke-linejoin:miter;stroke-miterlimit:4;stroke-opacity:1;stroke-dasharray:none;stroke-dashoffset:0;marker-start:none;marker-end:none"
       d="m 120.5104,545.79676 130.40161,0.0645"
       id="path2816-1-8-3-6"
       sodipodi:nodetypes="cc" />
    <g
       id="g6435"
       transform="matrix(0.51835201,0,0,0.51835201,-470.54951,263.85485)"
       style="fill:#0000ff">
      <g
         word-spacing="normal"
         letter-spacing="normal"
         font-size-adjust="none"
         font-stretch="normal"
         font-weight="normal"
         font-variant="normal"
         font-style="normal"
         fill-rule="even-odd"
         stroke-miterlimit="10.433"
         xml:space="preserve"
         transform="matrix(1.0629921,0,0,-1.0629921,-186.02362,789.27165)"
         id="g6437"
         style="font-style:normal;font-variant:normal;font-weight:normal;font-stretch:normal;letter-spacing:normal;word-spacing:normal;text-anchor:start;fill:#0000ff;stroke:#000000;stroke-linecap:butt;stroke-linejoin:miter;stroke-miterlimit:10.43299960999999954;stroke-opacity:1;stroke-dasharray:none;stroke-dashoffset:0"><path
           id="path6439"
           d="m 1215.9,349.89 0,-0.18 -0.1,-0.17 0,-0.16 -0.1,-0.15 0,-0.15 0,-0.13 -0.1,-0.13 0,-0.12 -0.1,-0.11 -0.1,-0.11 0,-0.1 -0.1,-0.09 -0.1,-0.09 -0.1,-0.07 -0.1,-0.08 -0.1,-0.06 -0.1,-0.07 -0.1,-0.05 -0.1,-0.05 -0.2,-0.05 -0.1,-0.04 -0.1,-0.02 -0.1,-0.02 -0.1,-0.01 -0.1,-0.02 -0.1,-0.01 -0.1,-0.01 -0.1,-0.02 -0.1,-0.01 -0.2,-0.01 -0.1,-0.01 -0.1,-0.01 -0.1,0 -0.2,-0.01 -0.1,-0.01 -0.2,0 -0.1,-0.01 -0.2,0 -0.1,0 -0.2,0 -0.2,-0.01 -0.1,0 -0.2,0 c -0.9,0 -1.4,0 -1.4,-0.94 0,-0.6 0.4,-0.6 1.4,-0.6 h 16.5 l -0.9,1.54 h -5.7 c -0.6,0 -0.7,0 -1.1,0.05 -0.4,0.05 -0.6,0.11 -0.6,0.5 0,0.15 0,0.25 0.3,1.15 l 6.8,27.35 c 0.4,1.74 0.5,1.89 2.7,1.89 h 5.3 c 4.9,0 9,-2.64 9,-9.22 0,-2.44 -1,-10.61 -5.2,-16.09 -1.5,-1.84 -5.4,-5.63 -11.5,-5.63 l 0.9,-1.54 c 10.3,0 20.2,10.51 20.2,21.42 0,7.02 -4.3,12.6 -11.8,12.6 h -16.7 c -0.9,0 -1.5,0 -1.5,-0.95 0,-0.59 0.5,-0.59 1.5,-0.59 0.6,0 1.5,-0.05 2.1,-0.1 0.8,-0.1 1.1,-0.25 1.1,-0.8 0,-0.2 0,-0.35 -0.2,-0.94 z"
           style="fill:#0000ff;stroke-width:0" /><path
           id="path6441"
           d="m 1254.9,342.07 0.1,0.17 0.2,0.16 0.2,0.17 0.1,0.16 0.2,0.18 0.1,0.09 0.1,0.09 0.1,0.09 0.1,0.1 0.1,0.1 0.1,0.11 0.2,0.11 0.1,0.11 0.1,0.12 0.2,0.13 0.1,0.13 0.2,0.14 0.2,0.14 0.1,0.15 0.2,0.16 0.2,0.16 0.2,0.17 0.3,0.19 0.2,0.18 0.2,0.2 0.3,0.21 0.3,0.22 c 0.7,0.59 3.3,2.69 4.3,3.66 2.1,2.09 3.5,3.87 3.5,4.29 0,0.42 -0.5,0.42 -0.6,0.42 -0.3,0 -0.4,-0.07 -0.6,-0.35 -1.1,-1.6 -1.8,-2.13 -2.7,-2.13 -0.4,0 -0.9,0.04 -2,1.05 -1.1,1.18 -1.9,1.43 -2.7,1.43 -2.8,0 -4.7,-3.04 -4.7,-4.08 0,-0.32 0.4,-0.42 0.6,-0.42 0.4,0 0.5,0.1 0.6,0.49 0.6,1.22 2.5,1.29 3.1,1.29 0.8,0 1.7,-0.21 2.2,-0.32 1.9,-0.41 2.1,-0.41 3,-0.41 -0.9,-0.95 -1.5,-1.57 -4.8,-4.22 -2.8,-2.17 -3.7,-3.04 -4.4,-3.73 -2.1,-2.06 -3.1,-3.6 -3.1,-3.91 0,-0.42 0.5,-0.42 0.6,-0.42 0.4,0 0.4,0.07 0.6,0.35 0.9,1.32 2,2.13 3.2,2.13 0.4,0 1,-0.04 1.9,-0.91 1.1,-1.04 1.8,-1.57 2.9,-1.57 3.7,0 6.1,4.22 6.1,5.4 0,0.42 -0.4,0.46 -0.6,0.46 -0.4,0 -0.5,-0.17 -0.7,-0.56 -0.6,-1.74 -2.7,-2.58 -4.4,-2.58 -0.8,0 -1.7,0.18 -2.5,0.38 -1.6,0.35 -1.9,0.35 -2.5,0.35 -0.1,0 -0.6,0 -0.8,-0.03 z"
           style="fill:#0000ff;stroke-width:0" /></g>    </g>
    <g
       id="g6567"
       transform="matrix(0.4449795,0,0,0.4449795,-322.28906,390.55694)"
       style="fill:#ff0000;stroke:#ff0000">
      <g
         id="g6569"
         transform="matrix(1.0629921,0,0,-1.0629921,-186.02362,789.27165)"
         xml:space="preserve"
         stroke-miterlimit="10.433"
         fill-rule="even-odd"
         font-style="normal"
         font-variant="normal"
         font-weight="normal"
         font-stretch="normal"
         font-size-adjust="none"
         letter-spacing="normal"
         word-spacing="normal"
         style="font-style:normal;font-variant:normal;font-weight:normal;font-stretch:normal;letter-spacing:normal;word-spacing:normal;text-anchor:start;fill:#ff0000;stroke:#ff0000;stroke-linecap:butt;stroke-linejoin:miter;stroke-miterlimit:10.43299961;stroke-opacity:1;stroke-dasharray:none;stroke-dashoffset:0"><path
           d="m 1205.9,349.89 0,-0.18 -0.1,-0.17 0,-0.16 -0.1,-0.15 0,-0.15 0,-0.13 -0.1,-0.13 0,-0.12 -0.1,-0.11 -0.1,-0.11 0,-0.1 -0.1,-0.09 -0.1,-0.09 -0.1,-0.07 -0.1,-0.08 -0.1,-0.06 -0.1,-0.07 -0.1,-0.05 -0.1,-0.05 -0.2,-0.05 -0.1,-0.04 -0.1,-0.02 -0.1,-0.02 -0.1,-0.01 -0.1,-0.02 -0.1,-0.01 -0.1,-0.01 -0.1,-0.02 -0.1,-0.01 -0.2,-0.01 -0.1,-0.01 -0.1,-0.01 -0.1,0 -0.2,-0.01 -0.1,-0.01 -0.2,0 -0.1,-0.01 -0.2,0 -0.1,0 -0.2,0 -0.2,-0.01 -0.1,0 -0.2,0 c -0.9,0 -1.4,0 -1.4,-0.94 0,-0.6 0.4,-0.6 1.4,-0.6 h 16.5 l -0.9,1.54 h -5.7 c -0.6,0 -0.7,0 -1.1,0.05 -0.4,0.05 -0.6,0.11 -0.6,0.5 0,0.15 0,0.25 0.3,1.15 l 6.8,27.35 c 0.4,1.74 0.5,1.89 2.7,1.89 h 5.3 c 4.9,0 9,-2.64 9,-9.22 0,-2.44 -1,-10.61 -5.2,-16.09 -1.5,-1.84 -5.4,-5.63 -11.5,-5.63 l 0.9,-1.54 c 10.3,0 20.2,10.51 20.2,21.42 0,7.02 -4.3,12.6 -11.8,12.6 h -16.7 c -0.9,0 -1.5,0 -1.5,-0.95 0,-0.59 0.5,-0.59 1.5,-0.59 0.6,0 1.5,-0.05 2.1,-0.1 0.8,-0.1 1.1,-0.25 1.1,-0.8 0,-0.2 0,-0.35 -0.2,-0.94 z"
           id="path6571"
           style="fill:#ff0000;stroke:#ff0000;stroke-width:0" /><path
           d="m 1244.9,342.07 0.1,0.17 0.2,0.16 0.2,0.17 0.1,0.16 0.2,0.18 0.1,0.09 0.1,0.09 0.1,0.09 0.1,0.1 0.1,0.1 0.1,0.11 0.2,0.11 0.1,0.11 0.1,0.12 0.2,0.13 0.1,0.13 0.2,0.14 0.2,0.14 0.1,0.15 0.2,0.16 0.2,0.16 0.2,0.17 0.3,0.19 0.2,0.18 0.2,0.2 0.3,0.21 0.3,0.22 c 0.7,0.59 3.3,2.69 4.3,3.66 2.1,2.09 3.5,3.87 3.5,4.29 0,0.42 -0.5,0.42 -0.6,0.42 -0.3,0 -0.4,-0.07 -0.6,-0.35 -1.1,-1.6 -1.8,-2.13 -2.7,-2.13 -0.4,0 -0.9,0.04 -2,1.05 -1.1,1.18 -1.9,1.43 -2.7,1.43 -2.8,0 -4.7,-3.04 -4.7,-4.08 0,-0.32 0.4,-0.42 0.6,-0.42 0.4,0 0.5,0.1 0.6,0.49 0.6,1.22 2.5,1.29 3.1,1.29 0.8,0 1.7,-0.21 2.2,-0.32 1.9,-0.41 2.1,-0.41 3,-0.41 -0.9,-0.95 -1.5,-1.57 -4.8,-4.22 -2.8,-2.17 -3.7,-3.04 -4.4,-3.73 -2.1,-2.06 -3.1,-3.6 -3.1,-3.91 0,-0.42 0.5,-0.42 0.6,-0.42 0.4,0 0.4,0.07 0.6,0.35 0.9,1.32 2,2.13 3.2,2.13 0.4,0 1,-0.04 1.9,-0.91 1.1,-1.04 1.8,-1.57 2.9,-1.57 3.7,0 6.1,4.22 6.1,5.4 0,0.42 -0.4,0.46 -0.6,0.46 -0.4,0 -0.5,-0.17 -0.7,-0.56 -0.6,-1.74 -2.7,-2.58 -4.4,-2.58 -0.8,0 -1.7,0.18 -2.5,0.38 -1.6,0.35 -1.9,0.35 -2.5,0.35 -0.1,0 -0.6,0 -0.8,-0.03 z"
           id="path6573"
           style="fill:#ff0000;stroke:#ff0000;stroke-width:0" /><path
           d="m 1273.5,343.76 -0.1,-0.01 0,-0.02 -0.1,-0.02 0,-0.02 -0.1,-0.02 0,-0.02 -0.1,-0.03 0,-0.02 -0.1,-0.02 0,-0.03 0,-0.02 -0.1,-0.03 0,-0.03 0,-0.02 -0.1,-0.03 0,-0.03 -0.1,-0.06 0,-0.06 -0.1,-0.06 0,-0.06 0,-0.06 -0.1,-0.06 0,-0.06 0,-0.06 -0.1,-0.06 0,-0.06 0,-0.06 0,-0.05 0,-0.05 0,-0.05 -0.1,-0.05 0,-0.05 0,-0.04 0,-0.03 0,-0.03 0,-0.03 0,-0.02 0,-0.01 0,-0.01 0,-0.01 0,0 0,0 0,-0.01 c 0,-0.42 0.3,-1.02 1.1,-1.02 0.7,0 1.6,0.6 1.6,1.69 0,1.48 -1.7,2.05 -3,2.05 -1.6,0 -2.6,-1.05 -3.1,-1.69 -0.9,1.41 -2.5,1.69 -3.3,1.69 -3.2,0 -4.9,-2.94 -4.9,-3.86 0,-0.35 0.4,-0.35 0.5,-0.35 0.2,0 0.4,0.02 0.5,0.3 0.8,2.44 2.8,3.06 3.7,3.06 0.9,0 1.8,-0.35 1.8,-1.67 0,-0.62 -0.4,-2.34 -1.3,-5.65 -0.3,-1.42 -1.5,-2.27 -2.6,-2.27 -0.1,0 -0.9,0 -1.5,0.4 1.2,0.4 1.2,1.35 1.2,1.44 0,0.73 -0.6,1.05 -1.1,1.05 -0.7,0 -1.6,-0.5 -1.6,-1.69 0,-1.52 1.7,-2.04 3,-2.04 1.4,0 2.5,0.79 3.1,1.69 1,-1.49 2.6,-1.69 3.3,-1.69 3.2,0 4.9,2.96 4.9,3.86 0,0.34 -0.4,0.34 -0.5,0.34 -0.4,0 -0.5,-0.14 -0.5,-0.37 -0.8,-2.24 -2.7,-2.99 -3.8,-2.99 -0.7,0 -1.7,0.28 -1.7,1.67 0,0.3 0,0.47 0.2,1.32 0.4,1.74 1.1,4.51 1.3,4.96 0.3,0.64 1.1,1.64 2.4,1.64 0.1,0 0.9,0 1.5,-0.4 z"
           id="path6575"
           style="fill:#ff0000;stroke:#ff0000;stroke-width:0" /></g>    </g>
    <g
       id="g6865"
       transform="matrix(0.5503084,0,0,0.5503084,-391.76714,299.9644)">
      <g
         id="g6867"
         transform="matrix(0.73767323,0,0,-0.73767323,218.78305,675.51354)"
         xml:space="preserve"
         stroke-miterlimit="10.433"
         fill-rule="even-odd"
         font-style="normal"
         font-variant="normal"
         font-weight="normal"
         font-stretch="normal"
         font-size-adjust="none"
         letter-spacing="normal"
         word-spacing="normal"
         style="font-style:normal;font-variant:normal;font-weight:normal;font-stretch:normal;letter-spacing:normal;word-spacing:normal;text-anchor:start;fill:#a02c2c;stroke:#a02c2c;stroke-linecap:butt;stroke-linejoin:miter;stroke-miterlimit:10.43299961;stroke-opacity:1;stroke-dasharray:none;stroke-dashoffset:0"><path
           d="m 1247.8,357.76 0,0.36 -0.1,0.36 0,0.34 0,0.34 -0.1,0.66 0,0.62 -0.2,0.6 -0.1,0.57 -0.1,0.54 -0.2,0.51 -0.2,0.48 -0.2,0.46 -0.3,0.43 -0.2,0.41 -0.3,0.38 -0.2,0.36 -0.3,0.33 -0.3,0.31 -0.3,0.29 -0.3,0.26 -0.4,0.24 -0.3,0.22 -0.3,0.2 -0.4,0.18 -0.3,0.16 -0.4,0.14 -0.4,0.13 -0.3,0.1 -0.4,0.09 -0.3,0.07 -0.4,0.05 -0.4,0.04 -0.3,0.02 -0.4,0.01 0,-1.1 c 4.9,0 4.9,-6.53 4.9,-10.41 0,-1.84 0,-4.73 0.1,-5.58 h 0 c -4.4,-3.83 -8.2,-4.38 -10.2,-4.38 -3,0 -4.5,2.24 -4.5,5.43 0,2.44 1.3,7.82 2.9,10.36 2.4,3.64 5.1,4.58 6.8,4.58 l 0,1.1 c -6.8,0 -13.4,-7.13 -13.4,-14.15 0,-4.63 3,-8.42 8.1,-8.42 3.1,0 6.7,1.15 10.5,4.19 0.7,-2.64 2.3,-4.19 4.6,-4.19 2.6,0 4.1,2.74 4.1,3.54 0,0.35 -0.3,0.5 -0.6,0.5 -0.3,0 -0.5,-0.15 -0.6,-0.5 -0.9,-2.44 -2.7,-2.44 -2.8,-2.44 -1.5,0 -1.5,3.88 -1.5,5.08 0,1.05 0,1.14 0.5,1.74 4.6,5.88 5.7,11.66 5.7,11.71 0,0.1 -0.1,0.5 -0.6,0.5 -0.5,0 -0.5,-0.15 -0.8,-1.05 -0.8,-3.14 -2.5,-6.92 -4.8,-9.86 z"
           id="path6869"
           style="fill:#a02c2c;stroke:#a02c2c;stroke-width:0" /></g>    </g>
    <g
       id="g7021"
       transform="matrix(0.34139984,0,0,0.34139984,-200.65827,303.02745)"
       style="fill:#008000;stroke:#008000">
      <g
         word-spacing="normal"
         letter-spacing="normal"
         font-size-adjust="none"
         font-stretch="normal"
         font-weight="normal"
         font-variant="normal"
         font-style="normal"
         fill-rule="even-odd"
         stroke-miterlimit="10.433"
         xml:space="preserve"
         transform="matrix(1.0629921,0,0,-1.0629921,-186.02362,789.27165)"
         id="g7023"
         style="font-style:normal;font-variant:normal;font-weight:normal;font-stretch:normal;letter-spacing:normal;word-spacing:normal;text-anchor:start;fill:#008000;stroke:#008000;stroke-linecap:butt;stroke-linejoin:miter;stroke-miterlimit:10.43299961;stroke-opacity:1;stroke-dasharray:none;stroke-dashoffset:0"><path
           id="path7025"
           d="m 1229,380.77 0,0.06 0,0.06 -0.1,0.05 0,0.05 0,0.06 -0.1,0.04 0,0.05 0,0.04 0,0.05 -0.1,0.04 0,0.03 0,0.04 0,0.03 -0.1,0.03 0,0.03 0,0.03 -0.1,0.03 0,0.02 0,0.02 -0.1,0.02 0,0.02 -0.1,0.02 0,0.02 -0.1,0.01 0,0.01 -0.1,0.01 0,0.01 -0.1,0.01 -0.1,0 0,0.01 -0.1,0 -0.1,0 c -0.8,0 -0.9,-0.25 -1.3,-0.9 l -0.3,-4.09 13.4,-26.89 h -26.8 l 13.4,26.89 0.3,4.09 -16.8,-33.77 c -0.3,-0.45 -0.3,-0.55 -0.3,-0.6 0,-0.4 0.3,-0.4 1.1,-0.4 h 34.6 c 0.8,0 1.1,0 1.1,0.4 0,0.05 0,0.15 -0.2,0.6 z"
           style="fill:#008000;stroke:#008000;stroke-width:0" /><path
           id="path7027"
           d="m 1254.6,350.13 0.3,0.27 0.2,0.26 0.2,0.24 0.3,0.24 0.2,0.23 0.2,0.23 0.2,0.21 0.2,0.21 0.2,0.2 0.2,0.2 0.2,0.19 0.2,0.18 0.2,0.18 0.2,0.17 0.3,0.34 0.4,0.32 0.3,0.3 0.3,0.29 0.3,0.29 0.7,0.56 0.3,0.29 0.4,0.28 c 0,0.05 3,2.69 4.8,4.49 4.8,4.63 5.9,7.02 5.9,7.22 0,0.5 -0.5,0.5 -0.6,0.5 -0.3,0 -0.5,-0.1 -0.7,-0.55 -1.5,-2.39 -2.6,-3.19 -3.8,-3.19 -1.2,0 -1.8,0.75 -2.5,1.6 -0.9,1.14 -1.8,2.14 -3.5,2.14 -3.7,0 -6,-4.64 -6,-5.68 0,-0.25 0.2,-0.55 0.6,-0.55 0.5,0 0.6,0.25 0.7,0.55 0.9,2.29 3.8,2.34 4.2,2.34 1.1,0 2,-0.35 3.1,-0.75 2,-0.75 2.6,-0.75 3.9,-0.75 -1.8,-2.14 -6,-5.72 -6.9,-6.52 l -4.5,-4.18 c -3.4,-3.34 -5.2,-6.18 -5.2,-6.53 0,-0.5 0.5,-0.5 0.6,-0.5 0.4,0 0.5,0.1 0.8,0.65 1.2,1.74 2.7,3.09 4.3,3.09 1.1,0 1.6,-0.45 2.9,-1.89 0.8,-1.05 1.7,-1.85 3.1,-1.85 5,0 7.9,6.33 7.9,7.67 0,0.25 -0.2,0.5 -0.6,0.5 -0.5,0 -0.6,-0.3 -0.7,-0.65 -1.2,-3.24 -4.4,-4.18 -6,-4.18 -1,0 -1.9,0.3 -2.9,0.65 -1.7,0.65 -2.5,0.85 -3.5,0.85 -0.1,0 -0.9,0 -1.4,-0.16 z"
           style="fill:#008000;stroke:#008000;stroke-width:0" /></g>    </g>
    <path
       style="fill:#ff0000;stroke:#ff0000;stroke-width:1;stroke-linecap:butt;stroke-linejoin:miter;stroke-miterlimit:4;stroke-opacity:1;stroke-dasharray:1,1;stroke-dashoffset:0;marker-start:none;marker-end:none"
       d="m 153.74976,513.66609 96.05642,0.0645"
       id="path2816-1-8-3-7"
       sodipodi:nodetypes="cc" />
    <path
       style="fill:#ff0000;stroke:#ff0000;stroke-width:1;stroke-linecap:butt;stroke-linejoin:miter;stroke-miterlimit:4;stroke-opacity:1;stroke-dasharray:1,1;stroke-dashoffset:0;marker-start:none;marker-end:none"
       d="m 229.25866,545.73843 21.05259,-32.51292"
       id="path2816-1-8-3-7-0"
       sodipodi:nodetypes="cc" />
    <path
       style="fill:#ff0000;stroke:#ff0000;stroke-width:0.42109594;stroke-linecap:butt;stroke-linejoin:miter;stroke-miterlimit:4;stroke-opacity:1;stroke-dasharray:none;stroke-dashoffset:0;marker-start:url(#Arrow1Mstart);marker-end:url(#Arrow2Mend-7)"
       d="m 219.95966,558.39071 -78.6986,-0.0758"
       id="path2816-1-8-3-3-9"
       sodipodi:nodetypes="cc" />
    <path
       style="fill:#ff0000;stroke:#ff0000;stroke-width:0.4384596;stroke-linecap:butt;stroke-linejoin:miter;stroke-miterlimit:4;stroke-opacity:1;stroke-dasharray:none;stroke-dashoffset:0;marker-start:none;marker-end:none"
       d="m 229.12291,545.58578 -13.62835,20.84361"
       id="path2816-1-8-3-6-5-6"
       sodipodi:nodetypes="cc" />
    <path
       style="fill:#00aa00;stroke:#00aa00;stroke-width:1;stroke-linecap:butt;stroke-linejoin:miter;stroke-miterlimit:4;stroke-opacity:1;stroke-dasharray:none;marker-start:none;marker-end:url(#Arrow1Mend)"
       d="M 153.60898,438.44194 246.03387,417.711"
       id="path2816-1-5"
       sodipodi:nodetypes="cc" />
    <path
       style="fill:none;stroke:#a02c2c;stroke-width:1px;stroke-linecap:butt;stroke-linejoin:miter;stroke-opacity:1;marker-start:url(#Arrow1Sstart);marker-end:url(#Arrow2Send)"
       d="m 208.55779,545.4157 c 0,0 39.15059,-15.07199 1.12782,-18.86223"
       id="path4390-3"
       sodipodi:nodetypes="cs" />
  </g>
</svg>
